HIERARCHY
ROOT Hips
{
	OFFSET 0.000000 0.000000 0.000000
	CHANNELS 6 Xposition Yposition Zposition Zrotation Yrotation Xrotation 
	JOINT LHipJoint
	{
		OFFSET 0.000000 0.000000 0.000000
		CHANNELS 3 Zrotation Yrotation Xrotation
		JOINT LeftUpLeg
		{
			OFFSET 1.363060 -1.794630 0.839290
			CHANNELS 3 Zrotation Yrotation Xrotation
			JOINT LeftLeg
			{
				OFFSET 2.448110 -6.726130 0.000000
				CHANNELS 3 Zrotation Yrotation Xrotation
				JOINT LeftFoot
				{
					OFFSET 2.562200 -7.039590 0.000000
					CHANNELS 3 Zrotation Yrotation Xrotation
					JOINT LeftToeBase
					{
						OFFSET 0.157640 -0.433110 2.322550
						CHANNELS 3 Zrotation Yrotation Xrotation
						End Site
						{
							OFFSET 0.000000 0.000000 0.000000
						}
					}
				}
			}
		}
	}
	JOINT RHipJoint
	{
		OFFSET 0.000000 0.000000 0.000000
		CHANNELS 3 Zrotation Yrotation Xrotation
		JOINT RightUpLeg
		{
			OFFSET -1.305520 -1.794630 0.839290
			CHANNELS 3 Zrotation Yrotation Xrotation
			JOINT RightLeg
			{
				OFFSET -2.542530 -6.985550 0.000000
				CHANNELS 3 Zrotation Yrotation Xrotation
				JOINT RightFoot
				{
					OFFSET -2.568260 -7.056230 0.000000
					CHANNELS 3 Zrotation Yrotation Xrotation
					JOINT RightToeBase
					{
						OFFSET -0.164730 -0.452590 2.363150
						CHANNELS 3 Zrotation Yrotation Xrotation
						End Site
						{
							OFFSET 0.000000 0.000000 0.000000
						}
					}
				}
			}
		}
	}
	JOINT LowerBack
	{
		OFFSET 0.000000 0.000000 0.000000
		CHANNELS 3 Zrotation Yrotation Xrotation
		JOINT Spine
		{
			OFFSET 0.028270 2.035590 -0.193380
			CHANNELS 3 Zrotation Yrotation Xrotation
			JOINT Spine1
			{
				OFFSET 0.056720 2.048850 -0.042750
				CHANNELS 3 Zrotation Yrotation Xrotation
				JOINT Neck
				{
					OFFSET 0.000000 0.000000 0.000000
					CHANNELS 3 Zrotation Yrotation Xrotation
					JOINT Neck1
					{
						OFFSET -0.054170 1.746240 0.172020
						CHANNELS 3 Zrotation Yrotation Xrotation
						JOINT Head
						{
							OFFSET 0.104070 1.761360 -0.123970
							CHANNELS 3 Zrotation Yrotation Xrotation
							End Site
							{
								OFFSET 0.000000 0.000000 0.000000
							}
						}
					}
				}
				JOINT LeftShoulder
				{
					OFFSET 0.000000 0.000000 0.000000
					CHANNELS 3 Zrotation Yrotation Xrotation
					JOINT LeftArm
					{
						OFFSET 3.362410 1.200890 -0.311210
						CHANNELS 3 Zrotation Yrotation Xrotation
						JOINT LeftForeArm
						{
							OFFSET 4.983000 -0.000000 -0.000000
							CHANNELS 3 Zrotation Yrotation Xrotation
							JOINT LeftHand
							{
								OFFSET 3.483560 -0.000000 -0.000000
								CHANNELS 3 Zrotation Yrotation Xrotation
								JOINT LeftFingerBase
								{
									OFFSET 0.000000 0.000000 0.000000
									CHANNELS 3 Zrotation Yrotation Xrotation
									JOINT LeftHandIndex1
									{
										OFFSET 0.715260 -0.000000 -0.000000
										CHANNELS 3 Zrotation Yrotation Xrotation
										End Site
										{
											OFFSET 0.000000 0.000000 0.000000
										}
									}
								}
								JOINT LThumb
								{
									OFFSET 0.000000 0.000000 0.000000
									CHANNELS 3 Zrotation Yrotation Xrotation
									End Site
									{
										OFFSET 0.000000 0.000000 0.000000
									}
								}
							}
						}
					}
				}
				JOINT RightShoulder
				{
					OFFSET 0.000000 0.000000 0.000000
					CHANNELS 3 Zrotation Yrotation Xrotation
					JOINT RightArm
					{
						OFFSET -3.136600 1.374050 -0.404650
						CHANNELS 3 Zrotation Yrotation Xrotation
						JOINT RightForeArm
						{
							OFFSET -5.241900 -0.000000 -0.000000
							CHANNELS 3 Zrotation Yrotation Xrotation
							JOINT RightHand
							{
								OFFSET -3.444170 -0.000000 -0.000000
								CHANNELS 3 Zrotation Yrotation Xrotation
								JOINT RightFingerBase
								{
									OFFSET 0.000000 0.000000 0.000000
									CHANNELS 3 Zrotation Yrotation Xrotation
									JOINT RightHandIndex1
									{
										OFFSET -0.622530 -0.000000 -0.000000
										CHANNELS 3 Zrotation Yrotation Xrotation
										End Site
										{
											OFFSET 0.000000 0.000000 0.000000
										}
									}
								}
								JOINT RThumb
								{
									OFFSET 0.000000 0.000000 0.000000
									CHANNELS 3 Zrotation Yrotation Xrotation
									End Site
									{
										OFFSET 0.000000 0.000000 0.000000
									}
								}
							}
						}
					}
				}
			}
		}
	}
}
MOTION
Frames: 11
Frame Time: 0.008333
0.005112 17.895950 5.900671 -4.009079 -5.741255 19.296038 1.785197 1.843553 -0.786430 -11.205923 -18.488851 -13.270745 -0.453665 6.168808 17.875348 -6.417585 23.576721 -9.002505 0.086500 -1.897000 -5.221200 -3.544072 -2.750738 -0.340890 19.565277 20.501744 -15.751963 -0.654452 -7.148985 20.172569 4.509216 -17.570493 -3.431282 -0.263700 3.303300 -9.124400 3.135167 0.364244 -5.366990 5.362904 0.627786 -11.719591 -2.480313 0.426347 -1.481767 -11.208280 -7.897537 -20.420882 5.300987 -9.078458 20.854980 2.112300 -4.461500 11.681100 -5.405241 -10.066456 1.616284 -87.384919 5.872731 30.112708 19.683802 -20.564744 -4.578519 0.273578 0.088916 -6.451069 36.528869 -26.038241 -17.942900 -7.125000 0.000000 0.000000 3.735900 -1.361500 -3.831700 4.846284 11.023340 3.374777 85.380963 -6.047463 28.798485 -24.384755 23.047721 -6.063492 0.416483 -0.996728 8.544666 -31.476780 -42.429954 22.348600 7.125000 0.000000 0.000000 8.152500 -75.609400 -5.879000 
0.005214 17.896563 5.900058 -3.975016 -5.659743 19.321055 1.787181 1.840657 -0.826091 -11.216641 -18.545992 -13.274087 -0.439411 6.161730 17.797505 -6.575412 24.039261 -8.302637 0.159100 -2.570000 -7.083900 -3.538071 -2.745661 -0.364358 19.537918 20.448477 -15.781253 -0.652974 -7.156689 20.181136 4.509202 -17.572193 -3.499656 -0.259300 3.276300 -9.049000 3.062818 0.353003 -5.086832 5.469453 0.665655 -12.160806 -2.431121 0.427512 -1.696113 -11.062516 -7.634167 -20.309108 5.110910 -8.720671 21.049976 2.068800 -4.314900 11.682500 -5.411348 -10.009991 1.622472 -87.539709 6.246622 30.193876 19.674488 -20.566495 -4.576919 0.266498 0.085576 -6.483628 36.569540 -25.821564 -17.839000 -7.125000 0.000000 0.000000 3.810400 -1.124400 -3.893000 4.819645 10.986463 3.407902 85.377525 -6.357121 28.665831 -24.467574 23.167199 -6.124456 0.430906 -0.982056 9.204735 -30.822317 -43.661262 22.345500 7.125000 0.000000 0.000000 11.438800 -76.563100 -8.489400 
0.005521 17.896768 5.901592 -3.922914 -5.603032 19.334842 1.786590 1.841059 -0.845353 -11.253155 -18.638470 -13.254659 -0.434018 6.154259 17.751416 -6.651875 24.271220 -7.978847 0.195000 -2.843800 -7.844100 -3.532815 -2.743358 -0.375338 19.490125 20.387593 -15.816585 -0.654088 -7.162791 20.183909 4.530490 -17.645402 -3.478957 -0.283900 3.426600 -9.468900 3.011203 0.353102 -4.988217 5.517969 0.690439 -12.356964 -2.399815 0.432264 -1.775591 -11.009418 -7.407175 -20.155295 5.164954 -8.422141 20.992297 2.123800 -4.176600 11.605900 -5.416074 -9.979619 1.622510 -87.636376 6.446968 30.200072 19.673993 -20.572116 -4.579738 0.262703 0.084647 -6.505228 36.617500 -25.844463 -17.883300 -7.125000 0.000000 0.000000 3.836200 -1.164100 -3.922000 4.803499 10.969908 3.423451 85.360696 -6.536189 28.737279 -24.479719 23.183341 -6.134453 0.417301 -0.990951 9.293548 -31.141598 -43.541160 22.538200 7.125000 0.000000 0.000000 10.650000 -76.555400 -7.899600 
0.005418 17.896563 5.902614 -3.908272 -5.572277 19.355903 1.787792 1.841335 -0.844863 -11.256381 -18.656081 -13.269337 -0.436963 6.149521 17.739383 -6.642357 24.242616 -7.999937 0.192800 -2.827700 -7.799400 -3.529649 -2.742061 -0.374014 19.471326 20.402378 -15.826015 -0.652494 -7.158982 20.169358 4.549238 -17.705203 -3.492333 -0.287000 3.445500 -9.521600 3.015026 0.375889 -5.054946 5.517697 0.717222 -12.326876 -2.401101 0.446185 -1.732579 -10.932708 -7.166651 -20.072411 5.351676 -8.117931 20.828556 2.223900 -4.017400 11.509300 -5.426986 -9.984895 1.623894 -87.578873 6.369806 30.264399 19.549628 -20.403642 -4.529855 0.252953 0.102536 -6.434035 36.897654 -26.226398 -18.304500 -7.125000 0.000000 0.000000 3.918500 -1.711200 -4.043100 4.802457 10.987221 3.417932 85.366475 -6.520580 28.915635 -24.280048 22.938886 -6.036347 0.371824 -1.028741 8.922817 -32.670214 -41.893534 23.017600 7.125000 0.000000 0.000000 5.235000 -75.464000 -3.755700 
0.004498 17.896563 5.901592 -3.979415 -5.522718 19.371153 1.793504 1.840318 -0.847000 -11.159632 -18.680353 -13.292943 -0.436962 6.149812 17.735798 -6.645340 24.246036 -8.016271 0.194500 -2.840200 -7.834300 -3.527064 -2.742624 -0.372356 19.553279 20.461768 -15.804050 -0.650219 -7.151732 20.150201 4.566738 -17.761530 -3.492625 -0.270300 3.344100 -9.238100 3.092852 0.397553 -5.073015 5.553894 0.745083 -12.329293 -2.441357 0.456058 -1.728844 -10.617596 -6.966143 -20.376825 5.126315 -7.848152 21.088549 2.117600 -3.888500 11.611000 -5.441130 -9.983465 1.628624 -87.497744 6.344380 30.369576 19.335116 -20.119494 -4.451178 0.231393 0.135821 -6.223325 37.672954 -27.057897 -19.337800 -7.125000 0.000000 0.000000 4.186000 -2.954600 -4.407700 4.803339 10.999962 3.425619 85.384592 -6.486665 28.729863 -24.299932 22.964061 -6.044508 0.398382 -1.012889 9.351007 -31.668086 -42.668240 22.585900 7.125000 0.000000 0.000000 8.177000 -75.891300 -5.945500 
0.002454 17.896359 5.903534 -4.050032 -5.481933 19.371245 1.798679 1.839739 -0.850535 -11.071386 -18.711404 -13.287672 -0.435456 6.151843 17.738549 -6.654462 24.268751 -8.024761 0.194200 -2.838300 -7.828800 -3.524918 -2.744998 -0.373310 19.644605 20.513051 -15.747968 -0.648102 -7.143557 20.129900 4.588242 -17.830613 -3.487159 -0.263500 3.302200 -9.121400 3.179866 0.433032 -5.094890 5.574860 0.789202 -12.374591 -2.479945 0.473372 -1.728294 -10.253036 -6.822568 -20.859048 4.729891 -7.637485 21.558970 1.925600 -3.796200 11.822200 -5.427906 -9.974135 1.638874 -87.489599 6.430822 30.356666 19.507945 -20.349148 -4.509071 0.254492 0.105271 -6.681756 36.745208 -26.165719 -18.173100 -7.125000 0.000000 0.000000 3.841300 -1.596400 -3.955700 4.798721 11.005023 3.437121 85.417409 -6.503279 28.479022 -24.358917 23.036669 -6.073410 0.427614 -0.993309 10.042764 -30.362472 -43.711142 22.011600 7.125000 0.000000 0.000000 12.303400 -76.440500 -9.103200 
0.001738 17.896052 5.906294 -4.023071 -5.398480 19.416578 1.801795 1.836312 -0.854925 -11.085769 -18.682669 -13.357397 -0.432630 6.157398 17.745290 -6.639933 24.224156 -7.910393 0.202500 -2.897600 -7.993700 -3.520261 -2.742884 -0.374869 19.621439 20.440583 -15.776486 -0.644256 -7.136526 20.105667 4.603352 -17.876897 -3.524365 -0.264600 3.309100 -9.140400 3.186722 0.428533 -5.199692 5.588363 0.781479 -12.389533 -2.480419 0.467674 -1.670609 -10.107703 -6.614126 -21.027064 4.684065 -7.344930 21.647295 1.918000 -3.656300 11.854900 -5.425619 -9.976126 1.642239 -87.489398 6.408700 30.227784 19.547739 -20.390210 -4.510338 0.271039 0.092681 -6.650574 35.958603 -25.604774 -17.340100 -7.125000 0.000000 0.000000 3.493200 -0.700200 -3.542200 4.796856 11.015272 3.446024 85.388656 -6.463659 28.463708 -24.403154 23.098514 -6.107435 0.446181 -0.976871 9.970518 -30.058744 -44.416707 22.053700 7.125000 0.000000 0.000000 14.276600 -76.992500 -10.737900 
0.003578 17.895541 5.908850 -4.006469 -5.341109 19.464893 1.803247 1.835769 -0.854868 -11.097960 -18.726808 -13.389361 -0.430175 6.161554 17.754594 -6.639803 24.226024 -7.875902 0.203700 -2.906300 -8.018100 -3.515422 -2.742430 -0.371126 19.593712 20.304341 -15.854542 -0.641681 -7.132933 20.089549 4.594463 -17.849737 -3.496554 -0.279600 3.400700 -9.396500 3.215178 0.420662 -5.312273 5.603031 0.764248 -12.329763 -2.494417 0.458985 -1.596603 -10.068227 -6.357877 -20.919750 4.831334 -7.004293 21.456031 2.012200 -3.489200 11.739900 -5.430314 -9.987614 1.640439 -87.460555 6.304350 30.129780 19.527409 -20.353423 -4.489674 0.277999 0.090797 -6.578738 35.558135 -25.272502 -16.900400 -7.125000 0.000000 0.000000 3.321300 -0.202000 -3.338500 4.796784 11.029179 3.445654 85.330780 -6.332922 28.549349 -24.357665 23.069958 -6.119163 0.463784 -0.959141 9.755004 -30.260497 -45.258039 22.534900 7.125000 0.000000 0.000000 15.861400 -77.834900 -12.215300 
0.001431 17.895337 5.911099 -4.041924 -5.397726 19.472425 1.805524 1.837229 -0.852639 -11.057703 -18.797146 -13.350245 -0.433473 6.160827 17.764208 -6.638298 24.223497 -8.073987 0.187900 -2.792000 -7.700200 -3.515624 -2.742724 -0.368811 19.613813 20.394980 -15.834439 -0.641362 -7.131552 20.087637 4.589906 -17.835449 -3.489027 -0.284900 3.432500 -9.485200 3.233194 0.471653 -5.316899 5.599958 0.829436 -12.304992 -2.502474 0.492716 -1.592805 -9.669768 -6.069583 -21.002296 4.592818 -6.647481 21.456569 1.906300 -3.322600 11.694100 -5.439293 -9.990402 1.647286 -87.392426 6.288038 30.278296 19.454389 -20.262449 -4.470858 0.265494 0.106118 -6.679791 36.131118 -25.838405 -17.594700 -7.125000 0.000000 0.000000 3.545300 -1.035700 -3.615700 4.795636 11.040980 3.442353 85.347686 -6.284566 28.588362 -24.157633 22.835670 -6.030373 0.442003 -0.983124 10.054891 -30.951281 -44.572245 22.811300 7.125000 0.000000 0.000000 13.014800 -77.452700 -9.906600 
-0.001738 17.894825 5.909055 -4.051613 -5.456422 19.476833 1.810288 1.836381 -0.853042 -11.039383 -18.759741 -13.374953 -0.436416 6.159785 17.763000 -6.624409 24.180543 -8.144897 0.177500 -2.714000 -7.483400 -3.514694 -2.739011 -0.368866 19.607911 20.551658 -15.794441 -0.641276 -7.131916 20.093809 4.590332 -17.833728 -3.554873 -0.267000 3.324200 -9.182700 3.201653 0.523356 -5.268134 5.630152 0.909297 -12.310793 -2.491760 0.532965 -1.622720 -9.048795 -5.738044 -21.257792 4.011189 -6.223949 21.585613 1.642300 -3.143600 11.697700 -5.462828 -9.989323 1.651124 -87.370633 6.239075 30.455711 19.242181 -19.985436 -4.405461 0.234036 0.145022 -6.404632 37.396993 -27.016908 -19.138500 -7.125000 0.000000 0.000000 4.032300 -2.828700 -4.236700 4.791783 11.043643 3.461557 85.337877 -6.324650 28.604692 -24.344328 23.049628 -6.111171 0.457019 -0.963984 9.450787 -30.708689 -44.935653 22.762300 7.125000 0.000000 0.000000 14.301600 -77.706700 -10.967600 
-0.005214 17.894621 5.904863 -4.076131 -5.471015 19.497036 1.818745 1.836001 -0.855382 -10.997508 -18.696463 -13.434612 -0.433276 6.166144 17.770393 -6.619261 24.159906 -8.056538 0.176800 -2.708400 -7.467900 -3.510851 -2.734003 -0.369256 19.622902 20.706440 -15.787604 -0.640928 -7.130283 20.085442 4.621454 -17.934503 -3.576506 -0.251900 3.229200 -8.917600 3.161263 0.537193 -5.231222 5.711791 0.948976 -12.322201 -2.464991 0.550382 -1.642898 -8.741821 -5.478019 -21.384549 3.721710 -5.871205 21.618574 1.527900 -2.992400 11.679500 -5.460238 -9.991868 1.657006 -87.441595 6.134126 29.958557 19.495221 -20.300860 -4.475239 0.281034 0.097079 -6.304531 35.520096 -25.536533 -17.036400 -7.125000 0.000000 0.000000 3.242300 -0.499000 -3.275700 4.773727 11.051379 3.473453 85.300050 -6.355261 28.695463 -24.390481 23.096438 -6.123761 0.449644 -0.969716 9.320413 -30.799339 -44.655085 22.721200 7.125000 0.000000 0.000000 13.507600 -77.479900 -10.291700 
